<svg xmlns="http://www.w3.org/2000/svg" width="459" height="500" viewBox="0 0 459 500">
<g>
<path d="M 215.00 461.03 C192.71,458.56 164.60,449.57 142.00,437.68 C118.11,425.11 94.04,405.06 76.75,383.34 C47.14,346.12 31.00,299.72 31.00,251.81 C31.00,203.19 48.83,154.79 80.67,116.99 C87.83,108.49 100.15,97.02 113.00,86.90 C135.26,69.35 167.03,55.71 199.35,49.82 C214.83,47.00 243.54,46.28 259.03,48.32 C264.24,49.00 269.74,49.94 274.59,50.92 C272.19,50.49 270.35,50.29 269.95,50.53 C268.60,51.36 269.15,52.09 271.53,52.68 C264.81,51.97 257.11,51.41 250.50,51.24 C223.87,50.55 205.26,53.56 180.37,62.55 C138.61,77.65 103.41,105.29 80.47,141.00 C69.26,158.45 59.37,183.61 55.46,204.62 C52.89,218.39 52.40,245.37 54.44,259.68 C59.79,297.09 74.72,331.03 98.58,360.00 C124.86,391.90 165.53,416.28 202.85,422.49 C219.79,425.31 231.72,422.99 241.38,415.00 C244.06,412.78 249.76,406.54 254.05,401.12 C266.96,384.81 272.61,381.39 294.00,376.98 C301.42,375.45 312.45,372.76 318.50,371.01 C328.93,367.98 350.26,365.40 353.75,366.73 C356.10,367.64 355.00,371.23 351.25,374.93 C348.65,377.49 345.65,379.15 341.50,380.34 C319.50,386.61 309.80,390.47 308.67,393.42 C307.76,395.80 309.81,396.41 320.00,396.82 C333.05,397.34 344.41,394.14 364.77,384.22 C371.96,380.72 384.86,368.48 390.92,359.43 C400.12,345.67 409.68,335.87 415.26,334.47 C417.13,334.00 418.40,334.40 419.93,335.93 C422.61,338.61 422.15,340.63 416.01,353.00 C405.66,373.85 396.30,386.82 379.55,403.50 C350.65,432.28 313.44,451.41 270.50,459.55 C261.11,461.34 226.15,462.27 215.00,461.03 ZM 348.26 123.10 C348.11,123.34 347.97,123.54 347.83,123.70 C346.18,125.57 339.60,141.18 339.04,144.39 L 333.28 138.97 C322.17,128.50 303.00,117.20 287.00,111.68 C270.82,106.10 260.14,104.50 239.50,104.55 C218.52,104.61 212.17,105.58 194.44,111.45 C153.57,124.98 121.30,157.17 107.17,198.50 C105.48,203.45 103.52,210.54 102.82,214.25 C102.12,217.96 101.20,221.00 100.77,221.00 C99.47,221.00 99.91,211.33 101.59,203.21 C106.23,180.75 116.34,158.23 129.48,141.09 C153.32,109.98 185.60,90.87 225.00,84.54 C247.17,80.97 275.73,83.95 297.00,92.05 C312.33,97.89 333.30,110.43 342.39,119.19 C345.73,122.41 347.24,123.45 348.26,123.10 ZM 199.03 386.40 C198.94,382.31 199.47,375.73 200.52,369.50 C203.80,350.08 210.99,336.28 225.50,321.59 C234.55,312.43 253.36,298.03 254.63,299.30 C254.90,299.57 248.62,306.25 240.68,314.15 C230.76,323.99 224.50,331.17 220.73,337.00 C210.15,353.39 205.14,365.21 203.17,378.65 C203.58,375.30 203.82,372.48 203.57,372.24 C203.34,372.01 202.84,373.87 202.47,376.38 C202.09,378.88 201.16,381.46 200.39,382.09 C199.65,382.70 199.16,384.57 199.03,386.40 ZM 353.21 107.65 C352.28,111.34 351.46,114.33 350.74,116.69 C351.37,114.13 352.29,110.76 353.21,107.65 ZM 322.58 172.70 C314.40,182.03 305.56,186.98 296.88,186.99 C305.56,186.98 314.49,181.89 322.58,172.70 ZM 356.99 109.25 C357.00,103.80 356.65,99.31 356.22,99.02 C356.23,99.01 356.24,99.00 356.25,99.00 C356.66,99.00 357.00,103.61 356.99,109.25 ZM 337.71 148.45 C337.02,149.98 336.11,151.83 335.07,153.80 C335.27,153.40 335.46,153.00 335.66,152.60 L 337.71 148.45 ZM 282.42 52.68 C285.37,53.43 287.54,54.12 288.48,54.65 C287.48,54.12 285.13,53.39 282.42,52.68 ZM 202.63 382.57 C202.30,384.85 202.01,386.59 201.72,387.85 C202.01,386.44 202.33,384.55 202.63,382.57 ZM 199.68 390.35 C199.96,390.63 200.37,390.68 200.71,390.52 C200.40,390.82 200.07,390.73 199.68,390.35 ZM 289.00 55.13 C289.00,55.14 289.00,55.14 289.00,55.14 C289.00,55.17 289.00,55.19 289.00,55.22 C289.00,55.19 289.00,55.16 289.00,55.13 Z" fill="rgba(8,166,177,1)"/>
<path d="M 186.48 340.33 C187.37,332.05 191.10,317.52 194.46,309.26 C203.63,286.76 211.57,275.33 232.29,254.79 C250.98,236.26 257.00,224.34 257.00,205.82 C257.00,195.13 255.02,187.60 249.93,178.87 C239.26,160.62 219.02,146.22 193.75,138.93 C180.51,135.11 184.84,133.77 201.63,136.49 C224.44,140.19 244.18,150.48 265.00,169.51 C280.66,183.84 286.45,187.01 296.88,186.99 C307.29,186.97 317.94,179.86 327.40,166.59 C331.99,160.14 339.00,146.94 339.00,144.74 C339.00,142.61 346.11,125.65 347.83,123.70 C349.28,122.04 351.15,116.17 354.18,103.75 C354.82,101.14 355.72,99.00 356.17,99.00 C356.63,99.00 357.00,103.61 356.99,109.25 C356.96,149.93 342.00,188.45 313.06,222.37 C301.54,235.87 272.91,261.05 247.00,280.48 C209.62,308.50 197.40,321.40 189.92,340.75 C188.60,344.19 187.12,347.00 186.64,347.00 C186.16,347.00 186.09,344.00 186.48,340.33 ZM 361.50 314.75 C377.74,288.31 383.96,252.30 378.03,219.00 C375.68,205.82 369.54,188.18 363.83,178.20 L 360.76 172.83 L 362.87 165.67 C364.04,161.73 365.28,156.35 365.64,153.72 C365.99,151.10 366.62,148.74 367.03,148.48 C368.17,147.77 375.38,160.29 380.28,171.50 C393.30,201.27 395.63,236.90 386.59,268.09 C381.98,284.00 374.29,300.17 365.34,312.75 C360.34,319.79 357.49,321.27 361.50,314.75 ZM 149.57 351.42 C146.46,339.04 145.00,328.51 145.00,318.52 C145.00,286.36 155.58,260.17 181.50,228.15 C198.75,206.85 203.94,198.56 203.98,192.25 C204.01,187.85 205.43,188.15 206.84,192.87 C209.88,202.99 207.78,209.25 196.57,223.50 C172.73,253.80 164.19,266.17 157.97,279.41 C151.70,292.74 150.04,297.90 148.94,307.50 C147.18,322.79 147.91,334.71 151.62,351.25 C152.40,354.76 150.45,354.92 149.57,351.42 ZM 285.56 160.95 C275.06,155.71 271.52,147.06 275.91,137.38 C276.94,135.12 279.48,131.97 281.56,130.38 C284.93,127.82 286.15,127.50 292.58,127.50 C299.16,127.50 300.16,127.78 303.66,130.58 C308.82,134.72 311.69,142.72 310.02,148.31 C308.59,153.10 302.74,159.66 298.21,161.56 C293.61,163.48 290.31,163.32 285.56,160.95 Z" fill="rgba(38,80,94,1)"/>
<path d="M 367.76 371.91 C379.45,359.61 396.42,343.09 396.89,343.56 C397.14,343.81 396.45,345.02 395.35,346.25 C394.26,347.49 389.13,353.38 383.97,359.35 C375.27,369.41 364.59,379.00 362.09,379.00 C361.50,379.00 364.06,375.81 367.76,371.91 ZM 285.71 54.99 C284.17,54.53 280.00,53.84 276.44,53.46 C270.16,52.78 267.93,51.78 269.95,50.53 C271.29,49.70 289.00,53.94 289.00,55.08 C289.00,55.59 288.89,55.96 288.75,55.91 C288.61,55.87 287.24,55.45 285.71,54.99 ZM 199.68 390.35 C198.46,389.13 198.96,383.28 200.39,382.09 C201.16,381.46 202.09,378.88 202.47,376.38 C202.84,373.87 203.34,372.01 203.57,372.24 C203.58,372.25 203.59,372.26 203.60,372.27 C203.17,372.36 199.99,388.35 200.00,390.45 C200.00,390.49 200.00,390.52 200.00,390.55 C199.89,390.51 199.78,390.44 199.68,390.35 ZM 202.85 381.02 C202.24,385.37 201.45,389.80 201.04,390.27 C200.99,390.32 200.94,390.37 200.89,390.41 C201.36,389.73 202.21,385.32 202.85,381.02 Z" fill="rgba(145,200,203,1)"/>
<path d="M 200.00 390.45 C199.99,388.32 203.26,371.92 203.61,372.28 C204.27,372.94 201.76,389.44 200.86,390.45 C200.32,391.05 200.00,391.05 200.00,390.45 Z" fill="rgba(253,254,254,1)"/>
</g>
</svg>