<svg xmlns="http://www.w3.org/2000/svg" width="572" height="617" viewBox="0 0 572 617">
<g>
<path d="M 473.76 83.06 C473.44,84.20 473.43,87.48 473.71,93.24 C474.96,119.24 468.81,155.63 458.39,183.87 C451.36,202.93 437.55,229.15 427.25,243.00 C415.43,258.90 410.71,264.31 395.01,280.01 C372.39,302.63 354.14,318.12 314.79,348.11 C284.86,370.94 274.93,379.05 263.64,389.97 C246.89,406.16 235.87,422.80 229.51,441.50 C228.02,445.90 226.55,449.73 226.26,450.00 C225.35,450.85 227.00,428.89 228.38,421.75 C229.08,418.16 229.29,415.20 228.89,415.01 C228.92,415.00 228.96,415.00 229.00,415.00 C229.55,415.00 230.00,414.30 230.00,413.45 C230.00,410.17 239.97,383.03 244.69,373.50 C256.69,349.21 271.56,329.99 293.00,311.05 C308.57,297.30 321.85,277.00 326.07,260.50 C333.18,232.72 326.90,207.96 307.23,186.20 C287.62,164.51 261.67,149.86 226.08,140.38 C224.20,139.88 222.46,138.89 222.22,138.17 C221.88,137.14 224.06,136.95 232.65,137.25 C245.33,137.68 264.07,141.16 272.22,144.59 C275.37,145.92 278.52,147.00 279.22,147.01 C281.17,147.01 297.75,155.22 306.62,160.57 C317.95,167.41 329.32,176.19 343.59,189.16 C364.07,207.76 374.24,212.76 389.55,211.78 C407.05,210.66 424.15,195.41 440.72,166.15 C444.77,159.01 446.85,155.72 446.36,152.87 C446.03,150.96 444.55,149.25 441.74,146.73 C444.77,149.26 446.92,150.95 447.16,150.96 C447.81,151.00 455.68,132.97 458.57,124.82 L 460.10 120.50 L 456.23 117.00 C455.16,116.03 454.08,115.07 452.99,114.13 C454.05,115.03 455.11,115.94 456.16,116.87 L 460.00 120.24 L 462.43 114.87 C463.76,111.92 466.54,103.30 468.59,95.72 C470.79,87.63 472.78,82.10 473.42,82.31 C473.55,82.36 473.66,82.61 473.76,83.06 ZM 524.48 260.70 L 523.94 277.00 C523.18,299.63 521.92,308.85 517.00,327.77 C511.01,350.80 498.25,377.87 484.53,396.68 C478.89,404.40 462.75,423.09 462.20,422.53 C462.01,422.35 463.96,419.35 466.52,415.87 C473.56,406.31 473.62,406.11 469.20,407.30 C468.78,407.41 468.38,407.54 468.00,407.69 C468.46,407.50 468.96,407.34 469.50,407.19 C472.81,406.28 474.15,405.07 477.25,400.21 C490.74,379.08 501.44,350.41 504.97,325.95 C508.18,303.75 507.56,276.77 503.35,255.50 C500.66,241.88 492.36,218.24 485.39,204.33 L 478.79 191.16 L 480.83 185.27 C482.84,179.46 485.66,165.73 486.22,159.08 C486.65,153.82 488.57,154.30 492.67,160.68 C510.70,188.74 521.91,224.83 524.48,260.70 ZM 251.06 209.30 C251.35,210.03 251.79,210.92 252.41,212.10 C256.82,220.49 258.28,226.67 257.80,234.94 C257.38,242.12 256.99,243.24 252.04,251.43 C249.12,256.27 240.13,268.61 232.07,278.86 C224.00,289.11 215.14,300.42 212.38,304.00 C192.68,329.44 179.10,356.63 173.89,381.04 C170.98,394.67 170.69,422.55 173.31,436.58 C175.71,449.46 180.14,464.69 185.51,478.56 C187.13,482.73 188.59,486.74 189.45,489.35 C189.21,488.89 188.93,488.46 188.64,488.14 C186.55,485.82 180.29,471.26 176.35,459.54 C172.23,447.32 169.63,434.11 167.50,414.67 C165.93,400.30 165.94,399.33 168.01,383.17 C170.24,365.63 173.36,350.24 175.55,345.94 C176.27,344.54 177.99,340.12 179.38,336.14 C185.40,318.91 204.01,289.64 223.88,266.11 C235.42,252.45 245.22,239.15 248.27,233.00 C250.10,229.30 250.54,226.57 250.72,217.64 C250.78,214.61 250.91,211.64 251.06,209.30 ZM 364.09 172.91 C361.10,170.27 358.41,166.76 356.09,162.44 C353.60,157.78 353.22,146.81 355.37,141.65 C357.28,137.10 362.65,131.19 367.95,127.82 C371.78,125.39 373.39,125.00 379.73,125.00 C388.52,125.00 394.63,127.64 400.26,133.86 C402.59,136.45 404.21,138.54 405.32,140.62 C405.07,140.22 404.81,139.84 404.53,139.47 C403.25,137.81 403.26,138.13 404.62,141.49 C405.78,144.37 406.10,147.50 405.77,152.64 C404.99,164.82 398.22,173.14 386.23,176.62 C379.98,178.44 375.91,177.95 368.22,174.47 C366.39,173.64 364.88,173.08 364.09,172.91 ZM 521.92 311.02 C524.10,298.49 524.97,286.32 524.83,272.54 L 524.75 265.05 C525.39,277.27 525.02,289.43 523.56,301.20 C523.23,303.87 522.66,307.26 521.92,311.02 ZM 154.45 132.30 C164.27,121.32 175.34,111.19 187.50,102.10 C176.08,110.63 164.33,121.44 154.45,132.30 ZM 406.97 157.31 C405.94,162.85 403.33,167.60 398.93,172.04 C402.93,168.01 405.68,162.68 406.97,157.31 ZM 422.33 91.70 C406.97,82.34 390.94,75.16 375.50,70.87 C391.25,75.25 406.90,82.22 422.33,91.70 ZM 121.24 182.47 C125.43,173.43 130.34,164.67 135.93,156.25 C130.44,164.67 125.53,173.44 121.24,182.47 ZM 463.31 173.84 C465.94,165.82 467.39,159.37 470.16,145.50 C472.24,135.13 473.26,129.54 473.85,123.14 C473.37,129.35 472.37,134.54 470.17,145.50 C467.39,159.37 465.94,165.82 463.31,173.84 ZM 100.83 293.01 C100.20,291.33 100.00,287.48 100.00,279.13 C100.00,277.25 100.02,275.40 100.05,273.57 C99.89,282.52 100.16,290.49 100.83,293.01 ZM 108.34 251.45 C107.10,257.93 106.43,265.30 104.95,281.00 C104.30,287.88 103.55,293.86 103.29,294.30 C103.22,294.43 103.09,294.51 102.92,294.53 C102.96,294.52 102.99,294.51 103.02,294.49 C103.40,294.25 104.26,288.31 104.92,281.28 C106.41,265.44 107.08,258.02 108.34,251.45 ZM 374.50 178.34 C373.53,178.13 372.58,177.85 371.65,177.51 C372.30,177.74 372.92,177.92 373.50,178.06 C377.06,178.93 381.04,179.00 384.87,178.41 C381.31,179.00 377.67,179.02 374.50,178.34 ZM 255.65 201.33 C253.74,202.37 252.20,203.66 251.52,204.96 C251.54,204.90 251.55,204.84 251.56,204.80 C251.92,203.69 253.55,202.40 255.65,201.33 ZM 103.25 238.34 C104.62,230.42 106.45,222.67 108.79,214.90 C106.50,222.64 104.64,230.47 103.25,238.34 ZM 266.91 197.70 C266.61,198.54 266.04,198.85 265.07,198.96 C266.04,198.84 266.61,198.52 266.91,197.70 ZM 466.30 408.59 C465.16,409.36 464.17,410.44 463.14,411.97 C464.17,410.42 465.14,409.36 466.30,408.59 Z" fill="rgba(45,75,88,1)"/>
<path d="M 409.70 515.03 C421.19,517.26 437.50,515.23 452.50,509.71 C458.17,507.62 458.32,507.48 455.25,507.19 C453.96,507.06 453.08,506.88 452.58,506.60 C453.14,506.88 454.17,507.00 455.68,507.00 C460.28,507.00 464.34,505.35 466.74,502.85 C466.32,503.54 466.12,504.00 466.27,504.00 C468.06,504.00 484.94,495.80 490.50,492.24 C499.68,486.34 514.97,471.30 520.72,462.50 C525.73,454.84 533.81,444.20 538.20,439.50 L 540.99 436.50 L 538.25 435.92 C537.60,435.78 537.12,435.63 536.64,435.63 C534.69,435.63 532.72,438.05 519.42,453.48 C512.31,461.71 503.88,471.26 500.68,474.68 C494.98,480.78 478.56,492.89 477.47,491.80 C477.16,491.50 478.25,490.41 479.87,489.37 C485.29,485.94 498.08,473.82 502.29,468.12 C504.58,465.03 509.08,459.24 512.29,455.25 C518.10,448.03 518.12,448.00 515.31,448.04 C512.93,448.07 511.30,449.67 504.60,458.55 C496.14,469.76 484.82,480.63 482.86,479.42 C482.84,479.40 482.82,479.39 482.79,479.37 C484.31,477.81 485.98,475.68 487.48,473.48 C487.07,474.10 486.73,474.65 486.53,475.00 C484.92,477.88 492.26,470.46 495.93,465.50 C501.18,458.41 501.47,457.91 497.49,459.67 C500.18,458.34 504.08,455.45 506.55,452.94 C510.35,449.09 512.12,448.00 514.59,448.00 C517.00,448.00 519.19,446.71 523.87,442.54 C531.66,435.59 532.92,434.95 537.41,435.68 C540.46,436.17 541.57,435.84 543.80,433.74 C548.52,429.30 556.26,425.00 559.52,425.00 C562.93,425.00 566.19,427.77 567.83,432.04 C567.48,432.01 567.03,433.24 566.33,435.95 C564.81,441.89 555.93,460.56 549.27,471.84 C533.49,498.53 513.41,522.39 491.50,540.47 C481.22,548.96 464.84,561.00 458.87,564.45 C457.02,565.52 452.12,568.37 448.00,570.78 C415.16,589.94 377.31,602.78 336.50,608.59 C320.20,610.91 281.97,610.93 266.58,608.63 C260.57,607.73 254.72,607.04 253.58,607.09 C251.22,607.18 252.51,607.71 255.99,608.35 C213.05,600.96 168.05,583.10 134.02,559.51 C100.78,536.48 66.22,500.10 47.40,468.36 C26.24,432.66 13.13,399.14 6.96,365.00 C1.96,337.31 1.67,334.16 1.64,307.50 C1.61,279.56 1.74,278.28 8.37,244.00 C15.77,205.74 28.71,174.53 51.59,139.70 C63.80,121.12 70.77,112.60 88.70,94.32 C110.61,72.00 135.40,54.28 166.50,38.73 C177.44,33.26 202.46,23.00 204.85,23.00 C205.34,23.00 209.06,21.93 213.12,20.61 C217.18,19.30 223.88,17.67 228.00,17.00 C232.12,16.32 236.28,15.36 237.24,14.85 C238.19,14.35 246.29,13.00 255.24,11.85 C286.24,7.86 329.98,9.40 357.11,15.45 C370.98,18.54 389.00,24.03 389.00,25.17 C389.00,26.26 388.74,26.24 382.14,24.57 C379.04,23.79 373.80,22.84 370.50,22.46 C368.75,22.27 366.30,21.91 363.85,21.51 C370.60,22.58 377.57,23.29 377.00,22.72 C376.14,21.85 361.06,19.06 348.00,17.36 C330.87,15.13 297.71,15.16 280.50,17.41 C250.70,21.31 229.34,27.45 197.35,41.31 C176.49,50.34 147.01,68.86 128.00,84.88 C118.31,93.05 97.72,114.21 91.21,122.69 C71.65,148.20 55.90,175.78 49.39,195.88 C48.57,198.42 47.48,201.40 46.97,202.50 C44.37,208.11 39.23,228.69 36.36,245.00 C33.70,260.09 33.69,305.60 36.33,321.50 C47.77,390.32 80.35,449.68 130.50,493.12 C135.45,497.41 139.71,500.93 139.97,500.96 C140.22,500.98 132.96,493.69 123.83,484.75 C123.25,484.18 122.66,483.60 122.07,483.01 C133.11,493.83 145.28,504.75 152.50,509.89 C183.53,532.00 222.46,548.73 250.78,552.12 C255.89,552.73 266.01,553.06 273.29,552.84 C285.99,552.47 286.80,552.32 294.00,548.90 C304.58,543.87 312.48,536.85 322.86,523.27 C327.80,516.80 333.79,509.52 336.17,507.10 C345.84,497.28 360.65,490.21 376.24,487.98 C385.79,486.62 409.05,481.30 416.00,478.90 C426.40,475.30 440.53,472.76 454.00,472.06 C461.42,471.68 468.29,471.75 469.25,472.22 C469.81,472.49 470.23,473.09 470.52,473.89 L 470.06 476.77 C469.21,481.96 464.45,487.26 458.11,490.07 C455.69,491.14 448.99,493.17 443.22,494.59 C437.45,496.01 428.66,498.72 423.68,500.62 C403.84,508.19 399.18,513.00 409.70,515.03 ZM 100.12 285.29 C99.82,276.98 100.12,264.24 101.03,254.64 C104.54,217.66 118.48,180.62 140.73,149.17 C151.85,133.47 170.06,115.13 187.50,102.10 C212.22,83.62 247.38,69.04 278.50,64.38 C291.63,62.41 322.32,61.14 330.80,62.21 C347.76,64.36 358.90,66.15 363.50,67.48 C366.25,68.28 371.65,69.80 375.50,70.87 C402.88,78.48 432.10,95.18 456.23,117.00 L 460.10 120.50 L 458.57 124.82 C455.68,132.97 447.81,151.00 447.16,150.96 C446.80,150.94 441.77,146.85 436.00,141.86 C411.54,120.73 385.60,107.43 352.50,99.05 C343.25,96.71 332.02,95.22 320.21,94.57 C324.96,94.78 329.88,95.10 335.00,95.51 C340.47,95.95 340.48,95.94 336.15,95.01 C322.54,92.07 289.67,92.04 271.68,94.96 C232.37,101.32 195.92,119.35 165.44,147.50 C156.42,155.83 143.25,171.18 136.27,181.50 C118.32,208.03 106.57,239.75 102.93,271.50 C102.30,277.00 101.38,281.93 100.89,282.45 C100.50,282.87 100.24,283.95 100.12,285.29 ZM 246.08 506.40 C245.03,502.86 244.86,498.20 245.37,486.96 C246.11,470.59 247.77,462.62 253.40,448.39 C257.60,437.76 257.90,435.58 255.00,436.50 C256.42,436.05 257.00,436.32 257.00,437.43 C257.00,439.98 257.83,439.26 260.11,434.75 C261.56,431.89 261.97,431.01 261.40,431.35 C262.57,430.07 264.14,427.90 265.30,425.92 C266.77,423.42 269.09,420.33 270.45,419.04 C271.82,417.76 272.77,416.43 272.56,416.10 C272.37,415.79 273.48,413.65 275.09,411.19 C274.70,411.82 274.32,412.44 273.98,413.00 C272.15,416.07 272.47,415.88 276.60,411.50 C279.18,408.75 283.52,404.46 286.25,401.97 L 291.20 397.44 L 286.72 397.47 C285.41,397.48 284.36,397.57 283.36,397.85 C284.32,397.58 285.30,397.48 286.49,397.47 C290.12,397.45 291.72,396.65 297.61,391.89 C306.76,384.52 313.48,379.86 323.50,373.94 C327.10,371.82 331.02,369.15 333.34,367.31 C333.27,367.47 333.27,367.60 333.35,367.68 C333.60,367.93 336.08,366.98 338.87,365.57 C346.45,361.72 346.13,362.41 337.40,368.65 C328.37,375.10 326.15,376.89 316.60,385.37 C309.11,392.02 307.57,393.52 298.43,403.12 C273.10,429.73 255.66,462.06 249.06,494.66 C247.93,500.24 247.00,506.24 247.00,507.98 C247.00,508.36 247.01,508.69 247.03,508.99 C246.71,508.30 246.38,507.44 246.08,506.40 ZM 218.80 360.84 C219.00,361.15 219.37,361.66 219.90,362.38 C224.65,368.91 220.94,377.00 213.18,377.00 C210.25,377.00 208.58,376.31 206.53,374.26 C204.18,371.91 203.86,370.92 204.27,367.26 C204.71,363.38 204.56,363.00 202.52,363.00 C200.35,363.00 200.33,363.13 201.55,367.75 L 200.29 363.00 L 203.15 363.00 C204.72,363.00 206.00,362.60 206.00,362.12 C206.00,360.46 211.92,358.76 215.42,359.42 C216.58,359.64 217.73,360.14 218.80,360.84 ZM 206.32 412.84 C203.34,414.42 201.01,414.26 197.77,412.25 C190.18,407.55 194.22,396.00 203.45,396.00 C207.45,396.00 211.01,400.12 210.97,404.70 C210.93,408.85 209.68,411.05 206.32,412.84 ZM 227.50 341.35 C222.45,336.31 222.02,332.50 226.00,328.23 C228.93,325.09 234.84,325.19 238.35,328.45 C238.44,328.53 238.53,328.61 238.61,328.70 C238.43,329.03 238.51,330.24 238.74,332.66 C239.18,337.25 238.98,337.87 236.39,339.91 C234.18,341.64 232.77,342.00 230.03,341.53 C228.48,341.27 227.66,341.20 227.50,341.35 ZM 268.49 281.09 C268.38,280.87 268.30,280.66 268.26,280.47 C266.88,273.99 266.93,273.36 268.99,270.74 C271.48,267.57 276.28,267.06 280.93,269.46 C281.46,269.74 281.92,270.01 282.33,270.30 C282.24,270.51 282.37,271.28 282.64,272.71 C283.58,277.78 282.32,280.88 278.59,282.66 C275.50,284.13 274.97,284.13 271.96,282.63 C270.53,281.92 269.15,281.31 268.49,281.09 ZM 245.41 309.25 C245.34,308.72 244.98,307.24 244.59,305.86 C243.62,302.45 246.23,297.24 249.55,295.98 C251.98,295.06 255.17,295.39 257.43,296.59 L 258.39 298.21 C262.39,304.96 257.84,312.65 250.67,311.28 C249.18,310.99 247.73,310.36 247.43,309.88 C247.13,309.40 246.35,309.01 245.69,309.03 C245.50,309.04 245.41,309.12 245.41,309.25 ZM 296.75 251.30 C296.06,252.22 294.06,253.26 292.29,253.60 C289.58,254.14 288.59,253.74 285.94,251.09 C283.40,248.56 282.92,247.42 283.44,245.22 C284.86,239.24 293.25,236.66 296.44,241.22 C298.32,243.90 298.47,248.98 296.75,251.30 ZM 206.55 446.55 C205.20,447.90 202.93,449.00 201.50,449.00 C198.17,449.00 194.00,444.83 194.00,441.50 C194.00,438.17 198.17,434.00 201.50,434.00 C204.83,434.00 209.00,438.17 209.00,441.50 C209.00,442.92 207.90,445.20 206.55,446.55 ZM 293.00 220.00 C290.43,222.57 286.96,222.54 283.63,219.93 C280.41,217.39 280.16,213.28 283.04,210.19 C285.59,207.45 291.02,207.26 293.35,209.83 C295.62,212.34 295.45,217.55 293.00,220.00 ZM 274.65 186.16 C274.44,186.40 274.61,187.00 275.20,187.95 C276.08,189.36 276.14,190.69 275.41,192.70 C274.53,195.15 273.93,195.47 270.70,195.28 C268.45,195.15 267.51,195.26 267.17,195.97 C267.21,194.93 267.15,193.55 267.03,191.70 C266.77,187.92 268.60,186.00 272.43,186.00 C273.25,186.00 273.99,186.05 274.65,186.16 ZM 212.80 474.80 C212.14,475.46 210.65,476.00 209.50,476.00 C206.63,476.00 205.00,474.13 205.00,470.84 C205.00,467.25 208.22,465.32 211.63,466.88 C214.25,468.07 214.93,472.67 212.80,474.80 ZM 194.36 127.19 C204.09,120.68 214.10,115.18 223.81,111.11 C225.55,110.39 227.28,109.68 228.99,109.01 C216.74,113.93 205.30,119.94 194.36,127.19 ZM 275.44 610.99 C270.09,610.47 264.67,609.76 259.21,608.89 C261.48,609.23 264.19,609.58 267.17,609.91 C271.67,610.40 276.51,610.93 279.29,611.24 C277.70,611.16 276.40,611.08 275.44,610.99 ZM 493.85 540.91 C483.68,549.82 473.92,557.52 467.95,561.00 C472.89,558.12 483.49,549.83 493.85,540.91 ZM 482.37 479.79 C482.38,479.81 482.40,479.83 482.41,479.85 C482.84,480.55 482.21,481.39 480.81,481.95 C480.43,482.10 480.11,482.25 479.86,482.38 C480.25,481.86 480.99,481.07 481.96,480.19 C482.09,480.06 482.23,479.93 482.37,479.79 ZM 563.94 446.70 C559.83,456.42 554.64,466.62 548.91,476.40 C554.72,466.26 560.28,455.22 563.94,446.70 ZM 223.83 371.09 C224.11,368.21 223.19,365.18 220.90,362.77 C220.37,362.22 219.95,361.77 219.61,361.42 C222.13,363.39 224.00,366.42 224.00,369.13 C224.00,369.79 223.94,370.44 223.83,371.09 ZM 532.81 500.75 C530.48,503.86 528.14,506.79 525.82,509.50 C523.89,511.76 521.65,514.22 519.20,516.80 C524.13,511.49 528.65,506.16 532.81,500.75 ZM 258.13 297.01 C258.70,297.40 259.18,297.85 259.54,298.35 C260.35,299.51 260.82,301.21 260.96,303.02 C260.72,301.02 260.02,299.13 258.89,297.86 L 258.13 297.01 ZM 496.16 460.27 C493.53,461.52 492.52,462.53 491.99,464.46 C492.00,464.41 492.00,464.36 492.00,464.31 C492.00,462.68 492.96,461.71 496.16,460.27 ZM 283.15 270.96 C284.56,272.32 285.00,274.10 284.98,277.33 C284.98,277.53 284.98,277.73 284.98,277.92 C284.99,275.49 284.46,272.68 283.52,271.44 C283.38,271.26 283.26,271.10 283.15,270.96 ZM 491.60 466.05 C491.10,467.68 490.16,469.67 489.29,470.87 C488.87,471.44 488.42,472.08 488.00,472.70 C489.61,470.25 490.96,467.80 491.60,466.05 ZM 276.82 408.48 C277.83,406.76 278.33,405.51 278.30,405.02 C278.77,405.17 278.53,406.01 277.66,407.25 C277.43,407.58 277.14,408.00 276.82,408.48 ZM 469.12 484.58 C470.29,482.65 470.95,479.82 470.87,477.00 L 470.82 474.98 C471.34,477.75 470.77,481.87 469.12,484.58 ZM 240.51 331.59 C241.23,333.39 241.34,335.37 240.84,337.15 C240.95,336.56 241.00,335.89 241.00,335.12 C241.00,333.98 240.81,332.69 240.51,331.59 ZM 239.19 105.21 C246.36,102.73 253.39,100.69 260.47,99.08 C253.09,100.84 246.01,102.88 239.19,105.21 ZM 247.44 311.58 C246.39,310.81 245.49,309.82 245.42,309.35 C245.51,309.71 246.02,310.33 246.86,311.03 C248.31,312.24 250.41,312.89 252.52,312.99 C250.58,312.96 248.69,312.50 247.44,311.58 ZM 131.71 192.19 C134.52,187.33 137.63,182.73 142.21,176.76 C138.01,182.31 134.32,187.69 131.71,192.19 ZM 335.06 610.11 C326.86,610.93 318.30,611.34 308.00,611.50 C305.29,611.54 302.49,611.57 299.73,611.57 C302.39,611.55 305.17,611.52 308.00,611.48 C318.32,611.33 326.87,610.92 335.06,610.11 ZM 256.18 431.77 C256.35,431.90 256.52,432.06 256.72,432.24 C257.91,433.31 258.40,433.60 259.31,433.08 C258.34,433.78 257.93,433.50 256.69,432.27 C256.51,432.08 256.34,431.91 256.18,431.77 ZM 473.68 490.30 C471.22,493.57 469.00,496.97 469.00,497.82 C469.00,497.90 469.00,497.98 468.99,498.07 C469.00,497.93 469.00,497.78 469.00,497.63 C469.00,496.86 471.23,493.53 473.68,490.30 ZM 281.39 284.06 C281.27,284.14 281.15,284.22 281.03,284.31 C279.87,285.10 278.77,285.59 277.66,285.77 C278.77,285.49 280.15,284.85 281.39,284.06 ZM 568.12 434.93 C567.92,436.40 567.28,438.37 566.07,441.47 C567.10,438.78 567.81,436.54 568.12,434.93 ZM 337.22 364.04 C338.16,363.40 339.02,363.00 339.52,363.00 C340.44,363.00 342.45,362.26 343.98,361.35 C342.45,362.26 340.53,363.00 339.73,363.00 C339.19,363.00 338.23,363.43 337.22,364.04 ZM 149.62 167.42 C149.63,167.41 149.63,167.40 149.64,167.40 C151.74,164.82 153.95,162.27 156.25,159.75 C154.04,162.20 151.81,164.78 149.62,167.42 ZM 277.19 405.42 C276.86,405.74 276.47,406.17 276.00,406.75 C275.91,406.87 275.81,406.98 275.71,407.09 C275.73,407.06 275.75,407.03 275.77,407.00 C276.17,406.36 276.70,405.79 277.19,405.42 ZM 266.97 197.50 C266.85,198.45 266.30,198.86 264.95,198.97 C266.07,198.87 266.68,198.53 266.97,197.50 ZM 278.78 190.88 C278.81,189.34 278.38,188.02 277.45,187.34 C277.14,187.11 276.86,186.92 276.59,186.75 C278.15,187.52 278.88,188.89 278.78,190.88 ZM 238.37 340.93 C236.88,342.09 234.90,342.76 232.97,342.91 C234.93,342.73 236.94,342.05 238.37,340.93 ZM 272.28 408.98 C271.53,408.98 271.00,408.59 271.00,407.74 C271.00,408.54 271.54,408.93 272.28,408.98 ZM 248.74 510.79 C249.07,510.69 249.34,510.49 249.56,510.09 C249.36,510.51 249.12,510.72 248.84,510.78 C248.80,510.79 248.77,510.79 248.74,510.79 ZM 296.50 17.45 C301.60,17.05 314.09,17.32 326.60,17.90 C314.08,17.32 301.58,17.05 296.50,17.45 ZM 252.30 435.35 C252.03,434.46 252.31,433.26 253.33,432.24 C253.34,432.23 253.35,432.22 253.35,432.22 C252.33,433.25 252.04,434.45 252.30,435.35 ZM 479.59 482.96 C479.70,482.98 479.78,483.00 479.84,483.04 C479.80,483.02 479.75,483.02 479.69,483.02 C479.64,483.01 479.60,483.00 479.59,482.96 ZM 275.02 285.63 C274.68,285.55 274.33,285.44 273.97,285.31 C274.32,285.43 274.68,285.54 275.02,285.63 Z" fill="rgba(76,162,173,1)"/>
<path d="M 100.19 290.50 C99.83,287.46 100.03,283.37 100.89,282.45 C101.25,282.06 101.85,279.25 102.39,275.58 C102.13,278.76 102.00,281.84 102.00,284.78 C102.00,288.75 101.63,290.89 101.00,290.50 C100.62,290.26 100.35,290.30 100.19,290.50 ZM 106.65 249.88 C110.10,234.89 115.29,220.17 122.02,206.28 C115.48,220.04 110.16,235.24 106.65,249.88 ZM 133.98 184.96 C134.73,183.80 135.50,182.65 136.27,181.50 C138.90,177.62 142.40,173.02 146.23,168.35 C141.80,173.84 137.60,179.52 133.98,184.96 Z" fill="rgba(178,211,215,1)"/>
<path d="M 281.00 611.43 C279.08,611.21 272.85,610.53 267.17,609.91 C256.65,608.76 249.41,607.26 253.58,607.09 C254.72,607.04 260.57,607.73 266.58,608.63 C281.97,610.93 320.20,610.91 336.50,608.59 C377.31,602.78 415.16,589.94 448.00,570.78 C452.12,568.37 457.02,565.52 458.87,564.45 C464.84,561.00 481.22,548.96 491.50,540.47 C513.41,522.39 533.49,498.53 549.27,471.84 C555.93,460.56 564.81,441.89 566.33,435.95 C567.32,432.08 567.83,431.23 568.23,432.75 C569.43,437.36 554.63,468.36 541.85,488.00 C532.29,502.69 520.40,516.59 505.39,530.60 C492.50,542.63 474.79,557.01 467.95,561.00 C465.59,562.38 461.60,564.88 459.08,566.57 C452.90,570.71 437.32,579.32 433.00,580.99 C431.08,581.73 427.02,583.58 424.00,585.09 C410.66,591.78 383.25,601.22 366.50,604.89 C345.35,609.53 331.10,611.14 308.00,611.48 C295.08,611.67 282.92,611.65 281.00,611.43 ZM 409.70 515.03 C399.18,513.00 403.84,508.19 423.68,500.62 C428.66,498.72 437.45,496.01 443.22,494.59 C448.99,493.17 455.69,491.14 458.11,490.07 C464.45,487.26 469.21,481.96 470.06,476.77 L 470.75 472.50 L 470.87 477.00 C470.95,479.82 470.29,482.65 469.12,484.58 C467.01,488.04 458.61,494.00 455.85,494.00 C452.78,494.00 446.00,497.14 446.00,498.56 C446.00,499.31 447.56,500.20 449.51,500.57 C453.47,501.31 454.76,502.64 453.11,504.29 C451.28,506.12 451.82,506.86 455.25,507.19 C458.32,507.48 458.17,507.62 452.50,509.71 C437.50,515.23 421.19,517.26 409.70,515.03 ZM 426.92 509.65 C428.89,507.77 431.51,505.72 432.75,505.08 C435.35,503.75 435.77,501.00 433.37,501.00 C427.38,501.00 409.10,510.73 410.58,513.13 C410.87,513.59 413.86,513.77 417.22,513.52 C422.52,513.13 423.83,512.61 426.92,509.65 ZM 247.00 507.98 C247.00,506.24 247.93,500.24 249.06,494.66 C255.66,462.06 273.10,429.73 298.43,403.12 C307.57,393.52 309.11,392.02 316.60,385.37 C326.15,376.89 328.37,375.10 337.40,368.65 C346.13,362.41 346.45,361.72 338.87,365.57 C336.08,366.98 333.60,367.93 333.35,367.68 C332.65,366.98 338.08,363.00 339.73,363.00 C340.53,363.00 342.45,362.26 343.98,361.35 C346.74,359.72 350.00,360.02 350.00,361.90 C350.00,362.43 348.25,364.14 346.10,365.68 C306.65,394.21 289.63,411.77 271.62,442.50 C260.40,461.66 259.84,462.95 253.36,484.50 C251.50,490.69 250.58,496.16 250.43,502.00 C250.26,508.90 249.92,510.56 248.61,510.82 C247.40,511.07 247.00,510.36 247.00,507.98 ZM 467.44 501.78 C468.30,500.56 469.00,498.77 469.00,497.82 C469.00,496.21 477.00,485.43 479.43,483.77 C480.08,483.32 480.11,483.00 479.50,482.95 C478.95,482.91 479.54,482.46 480.81,481.95 C482.21,481.39 482.84,480.55 482.41,479.85 C481.96,479.12 482.13,478.96 482.86,479.42 C484.82,480.63 496.14,469.76 504.60,458.55 C511.30,449.67 512.93,448.07 515.31,448.04 C518.12,448.00 518.10,448.03 512.29,455.25 C509.08,459.24 504.58,465.03 502.29,468.12 C498.08,473.82 485.29,485.94 479.87,489.37 C478.25,490.41 477.16,491.50 477.47,491.80 C478.56,492.89 494.98,480.78 500.68,474.68 C503.88,471.26 512.31,461.71 519.42,453.48 C535.99,434.27 534.97,435.22 538.25,435.92 L 540.99 436.50 L 538.20 439.50 C533.81,444.20 525.73,454.84 520.72,462.50 C514.97,471.30 499.68,486.34 490.50,492.24 C484.94,495.80 468.06,504.00 466.27,504.00 C466.06,504.00 466.59,503.00 467.44,501.78 ZM 194.54 500.45 C192.18,497.90 191.58,496.63 191.88,494.75 C191.95,494.34 191.65,494.00 191.21,494.00 C190.78,494.00 190.36,493.21 190.28,492.25 C190.20,491.29 188.06,485.13 185.51,478.56 C180.14,464.69 175.71,449.46 173.31,436.58 C170.69,422.55 170.98,394.67 173.89,381.04 C179.10,356.63 192.68,329.44 212.38,304.00 C215.14,300.42 224.00,289.11 232.07,278.86 C240.13,268.61 249.12,256.27 252.04,251.43 C256.99,243.24 257.38,242.12 257.80,234.94 C258.28,226.67 256.82,220.49 252.41,212.10 C250.32,208.12 250.23,207.45 251.51,204.98 C253.07,201.96 259.27,199.00 264.02,199.00 C266.32,199.00 267.00,198.55 267.00,197.03 C267.00,195.39 267.61,195.10 270.70,195.28 C273.93,195.47 274.53,195.15 275.41,192.70 C276.14,190.69 276.08,189.36 275.20,187.95 C273.79,185.69 274.81,185.41 277.45,187.34 C279.76,189.03 278.96,194.59 275.94,197.84 C273.20,200.77 275.43,201.68 280.32,199.64 C282.28,198.82 284.80,198.40 285.92,198.69 C289.17,199.54 292.71,198.21 293.31,195.91 C294.07,193.00 293.31,191.46 290.44,190.16 C289.10,189.54 288.00,188.36 288.00,187.52 C288.00,185.44 291.58,185.60 293.20,187.75 C293.93,188.71 295.86,190.19 297.51,191.04 C300.00,192.33 300.53,193.24 300.67,196.54 C301.01,204.37 302.63,214.03 303.80,215.20 C304.46,215.86 305.00,217.70 305.00,219.30 C305.00,221.23 306.00,223.13 308.00,225.00 C309.99,226.86 310.99,228.76 310.98,230.65 C310.94,236.64 308.10,249.37 306.25,251.88 C305.18,253.32 304.00,256.18 303.61,258.24 C302.88,262.18 300.29,264.42 298.06,263.04 C297.02,262.40 297.30,261.47 299.37,258.76 C301.71,255.69 302.75,253.00 301.58,253.00 C301.35,253.00 299.08,253.90 296.53,254.99 C292.41,256.75 291.52,256.82 288.69,255.63 C286.94,254.88 283.59,252.16 281.25,249.57 C277.28,245.18 277.00,244.49 277.00,239.06 C277.00,232.48 275.69,230.68 271.31,231.18 C269.00,231.44 268.23,232.27 267.01,235.80 C265.78,239.37 265.18,240.01 263.44,239.57 C261.82,239.17 261.00,239.78 259.80,242.27 C257.67,246.72 245.85,263.90 238.00,273.96 C234.43,278.54 230.07,284.13 228.33,286.39 C226.58,288.65 222.86,293.42 220.05,297.00 C194.11,330.00 184.77,347.19 177.15,376.00 C174.35,386.56 172.68,399.12 173.21,405.54 C173.98,414.77 175.40,414.40 177.86,404.32 C179.25,398.64 179.84,397.55 181.41,397.83 C182.44,398.01 183.67,397.56 184.13,396.83 C185.34,394.91 185.19,388.16 183.84,384.45 C183.21,382.69 182.99,380.47 183.36,379.51 C183.92,378.04 184.27,377.98 185.63,379.11 C186.51,379.84 188.18,380.45 189.34,380.47 C191.30,380.50 191.99,381.67 193.61,387.75 C193.79,388.44 195.04,389.00 196.39,389.00 C197.86,389.00 199.58,390.02 200.70,391.57 C202.00,393.35 203.82,394.30 206.65,394.68 C210.69,395.22 210.74,395.19 211.41,391.61 C212.19,387.48 215.00,385.20 220.39,384.32 C223.42,383.83 224.00,384.03 224.00,385.54 C224.00,386.53 223.25,388.17 222.33,389.19 C221.29,390.33 220.55,393.13 220.38,396.54 C220.16,400.93 220.70,403.30 223.05,408.27 C224.67,411.70 226.00,415.29 226.00,416.25 C226.00,417.21 226.45,418.00 227.00,418.00 C227.55,418.00 228.00,417.33 228.00,416.50 C228.00,415.67 228.38,415.00 228.84,415.00 C229.31,415.00 229.10,418.04 228.38,421.75 C227.00,428.89 225.35,450.85 226.26,450.00 C226.55,449.73 228.02,445.90 229.51,441.50 C235.87,422.80 246.89,406.16 263.64,389.97 C274.93,379.05 284.86,370.94 314.79,348.11 C354.14,318.12 372.39,302.63 395.01,280.01 C410.71,264.31 415.43,258.90 427.25,243.00 C437.55,229.15 451.36,202.93 458.39,183.87 C468.81,155.63 474.96,119.24 473.71,93.24 C473.33,85.43 473.49,82.18 474.23,82.64 C474.95,83.09 475.11,90.01 474.72,104.40 C474.21,123.76 473.83,127.15 470.16,145.50 C466.01,166.23 464.84,170.40 458.20,188.00 C450.90,207.34 444.27,220.18 432.14,238.49 C409.90,272.05 375.89,304.40 313.00,351.82 C293.38,366.62 282.32,375.82 277.06,381.72 C271.47,387.99 271.05,389.00 274.00,389.00 C277.04,389.00 276.40,391.60 272.66,394.45 C268.47,397.64 267.62,397.65 268.41,394.50 C270.32,386.91 258.02,397.24 247.00,412.50 C239.05,423.51 233.52,434.60 231.46,443.67 C230.61,447.42 228.93,451.85 227.74,453.50 C225.91,456.04 225.56,457.90 225.52,465.62 C225.46,475.14 224.42,478.00 220.98,478.00 C220.01,478.00 218.94,477.27 218.60,476.39 C218.09,475.08 217.69,475.01 216.49,476.01 C214.57,477.60 214.57,480.62 216.50,481.36 C218.37,482.08 218.46,485.38 216.65,486.88 C215.91,487.49 213.17,488.29 210.57,488.64 C205.08,489.40 203.01,491.08 202.97,494.82 C202.94,497.57 201.79,499.49 198.79,501.84 C197.30,503.01 196.74,502.82 194.54,500.45 ZM 212.80 474.80 C214.93,472.67 214.25,468.07 211.63,466.88 C208.22,465.32 205.00,467.25 205.00,470.84 C205.00,474.13 206.63,476.00 209.50,476.00 C210.65,476.00 212.14,475.46 212.80,474.80 ZM 206.55 446.55 C207.90,445.20 209.00,442.92 209.00,441.50 C209.00,438.17 204.83,434.00 201.50,434.00 C198.17,434.00 194.00,438.17 194.00,441.50 C194.00,444.83 198.17,449.00 201.50,449.00 C202.93,449.00 205.20,447.90 206.55,446.55 ZM 206.32 412.84 C209.68,411.05 210.93,408.85 210.97,404.70 C211.01,400.12 207.45,396.00 203.45,396.00 C194.22,396.00 190.18,407.55 197.77,412.25 C201.01,414.26 203.34,414.42 206.32,412.84 ZM 296.75 251.30 C298.47,248.98 298.32,243.90 296.44,241.22 C293.25,236.66 284.86,239.24 283.44,245.22 C282.92,247.42 283.40,248.56 285.94,251.09 C288.59,253.74 289.58,254.14 292.29,253.60 C294.06,253.26 296.06,252.22 296.75,251.30 ZM 293.00 220.00 C295.45,217.55 295.62,212.34 293.35,209.83 C291.02,207.26 285.59,207.45 283.04,210.19 C280.16,213.28 280.41,217.39 283.63,219.93 C286.96,222.54 290.43,222.57 293.00,220.00 ZM 130.50 493.12 C80.35,449.68 47.77,390.32 36.33,321.50 C33.69,305.60 33.70,260.09 36.36,245.00 C39.23,228.69 44.37,208.11 46.97,202.50 C47.48,201.40 48.57,198.42 49.39,195.88 C55.90,175.78 71.65,148.20 91.21,122.69 C97.72,114.21 118.31,93.05 128.00,84.88 C147.01,68.86 176.49,50.34 197.35,41.31 C229.34,27.45 250.70,21.31 280.50,17.41 C297.71,15.16 330.87,15.13 348.00,17.36 C361.06,19.06 376.14,21.85 377.00,22.72 C377.74,23.47 365.48,22.01 357.78,20.42 C349.23,18.66 307.04,16.62 296.50,17.45 C273.26,19.29 264.09,21.02 235.00,29.04 C222.19,32.58 199.65,41.44 189.50,46.95 C186.20,48.74 180.80,51.66 177.50,53.45 C166.97,59.15 164.74,60.54 152.50,68.99 C137.09,79.63 132.40,83.56 116.12,99.44 C87.99,126.90 68.40,155.27 53.38,190.30 C47.91,203.05 40.26,231.66 37.97,247.88 C35.81,263.24 35.09,291.67 36.46,307.50 C38.16,327.06 44.50,355.00 51.55,374.00 C56.25,386.64 67.91,412.40 71.02,417.00 C71.95,418.38 72.89,419.99 73.11,420.58 C73.32,421.18 75.53,424.92 78.00,428.90 C82.24,435.72 85.26,439.86 100.87,460.20 C104.37,464.76 114.71,475.81 123.83,484.75 C132.96,493.69 140.22,500.98 139.97,500.96 C139.71,500.93 135.45,497.41 130.50,493.12 ZM 486.53 475.00 C486.99,474.17 488.23,472.31 489.29,470.87 C490.34,469.42 491.50,466.81 491.85,465.07 C492.36,462.56 493.39,461.50 496.79,459.98 C501.49,457.88 501.47,458.01 495.93,465.50 C492.26,470.46 484.92,477.88 486.53,475.00 ZM 257.00 437.43 C257.00,436.32 256.42,436.05 255.00,436.50 C252.30,437.36 251.18,434.40 253.36,432.21 C254.88,430.69 255.13,430.70 256.69,432.27 C258.29,433.86 258.50,433.85 260.33,432.23 C262.13,430.62 262.11,430.80 260.11,434.75 C257.83,439.26 257.00,439.98 257.00,437.43 ZM 459.45 426.09 C459.76,425.58 459.56,425.02 459.02,424.84 C457.54,424.34 459.72,417.25 462.85,412.39 C464.78,409.41 466.51,408.02 469.20,407.30 C473.62,406.11 473.56,406.31 466.52,415.87 C463.96,419.35 462.01,422.35 462.20,422.53 C462.75,423.09 478.89,404.40 484.53,396.68 C498.25,377.87 511.01,350.80 517.00,327.77 C521.92,308.85 523.18,299.63 523.94,277.00 L 524.66 255.50 L 524.83 272.54 C525.08,297.25 522.09,316.76 514.12,342.50 C510.05,355.64 499.15,377.96 489.45,393.00 C484.63,400.47 467.97,420.50 463.07,424.71 C460.45,426.97 458.43,427.74 459.45,426.09 ZM 263.00 420.62 C263.00,419.79 263.45,418.84 264.00,418.50 C264.55,418.16 265.00,418.56 265.00,419.38 C265.00,420.21 264.55,421.16 264.00,421.50 C263.45,421.84 263.00,421.44 263.00,420.62 ZM 273.98 413.00 C275.13,411.08 276.79,408.49 277.66,407.25 C278.62,405.88 278.81,405.00 278.13,405.00 C277.52,405.00 276.45,405.90 275.77,407.00 C274.39,409.21 271.00,409.73 271.00,407.74 C271.00,407.05 273.53,404.46 276.63,401.99 C281.37,398.20 282.95,397.50 286.72,397.47 L 291.20 397.44 L 286.25 401.97 C283.52,404.46 279.18,408.75 276.60,411.50 C272.47,415.88 272.15,416.07 273.98,413.00 ZM 207.86 378.55 C203.99,375.92 203.49,375.07 201.55,367.75 C200.33,363.13 200.35,363.00 202.52,363.00 C204.56,363.00 204.71,363.38 204.27,367.26 C203.86,370.92 204.18,371.91 206.53,374.26 C208.58,376.31 210.25,377.00 213.18,377.00 C220.94,377.00 224.65,368.91 219.90,362.38 C218.02,359.81 218.13,359.85 220.90,362.77 C226.04,368.18 224.30,376.72 217.47,379.58 C212.89,381.49 212.05,381.40 207.86,378.55 ZM 228.00 341.95 C226.91,341.20 227.46,341.09 230.03,341.53 C232.77,342.00 234.18,341.64 236.39,339.91 C238.98,337.87 239.18,337.25 238.74,332.66 C238.31,328.22 238.42,327.85 239.63,329.51 C240.38,330.54 241.00,333.06 241.00,335.12 C241.00,337.96 240.37,339.35 238.37,340.93 C235.56,343.13 230.48,343.63 228.00,341.95 ZM 246.86 311.03 C245.56,309.95 245.04,309.05 245.69,309.03 C246.35,309.01 247.13,309.40 247.43,309.88 C247.73,310.36 249.18,310.99 250.67,311.28 C257.84,312.65 262.39,304.96 258.39,298.21 L 256.78 295.50 L 258.89 297.86 C261.74,301.05 261.80,308.20 259.00,311.00 C256.34,313.66 250.03,313.68 246.86,311.03 ZM 101.16 293.76 C99.74,292.34 99.61,289.64 101.00,290.50 C101.63,290.89 102.00,288.75 102.00,284.78 C102.00,257.68 113.32,219.57 129.56,192.00 C138.22,177.30 152.93,159.06 165.44,147.50 C195.92,119.35 232.37,101.32 271.68,94.96 C289.67,92.04 322.54,92.07 336.15,95.01 C340.48,95.94 340.47,95.95 335.00,95.51 C289.32,91.85 260.06,95.95 223.81,111.11 C197.42,122.16 168.82,143.85 149.64,167.40 C140.57,178.52 135.83,185.08 131.71,192.19 C125.69,202.56 117.11,220.95 114.77,228.50 C107.61,251.52 107.82,250.41 104.92,281.28 C104.26,288.31 103.40,294.25 103.02,294.49 C102.64,294.73 101.80,294.40 101.16,293.76 ZM 272.17 284.52 C269.69,283.15 267.23,281.00 268.15,281.00 C268.45,281.00 270.16,281.73 271.96,282.63 C274.97,284.13 275.50,284.13 278.59,282.66 C282.32,280.88 283.58,277.78 282.64,272.71 C282.07,269.71 282.13,269.63 283.52,271.44 C285.06,273.46 285.51,279.73 284.23,281.56 C282.83,283.58 278.54,286.00 276.53,285.90 C275.41,285.85 273.45,285.23 272.17,284.52 ZM 373.50 178.06 C369.92,177.19 364.36,174.40 363.53,173.05 C363.20,172.51 365.31,173.16 368.22,174.47 C375.91,177.95 379.98,178.44 386.23,176.62 C398.22,173.14 404.99,164.82 405.77,152.64 C406.10,147.50 405.78,144.37 404.62,141.49 C403.26,138.13 403.25,137.81 404.53,139.47 C410.60,147.36 407.92,162.98 398.93,172.04 C393.49,177.53 382.24,180.19 373.50,178.06 Z" fill="rgba(253,254,254,1)"/>
</g>
</svg>